<?xml version="1.0" encoding="UTF-8"?>
<svg width="256" height="256" version="1.1" viewBox="0 0 256 256" xmlns="http://www.w3.org/2000/svg" xmlns:xlink="http://www.w3.org/1999/xlink">
  <defs>
    <linearGradient id="fill-gradient-vertical" x1="118" x2="118" y1="225" y2="120" gradientUnits="userSpaceOnUse">
      <stop id="bottom" stop-color="#efd474" offset="0"/>
      <stop id="top" stop-color="#f2da7e" offset="1"/>
    </linearGradient>
    <filter id="shadow-blur" x="-.012134" y="-.011869" width="1.0243" height="1.0237" color-interpolation-filters="sRGB">
      <feGaussianBlur stdDeviation="0.98975048"/>
    </filter>
  </defs>
  <path id="shadow" d="m68 35.3-32 120c14.045 0 95.139 0.0129 107.19 0 2.7965-3e-3 4.0164 1.5864 3.4922 4.1016-0.95955 4.6042-2.5428 11.193-4.3144 15.859-1.0542 2.7766-3.5351 4.1717-6.7383 4.252-6.3704 0.011-15.048 0-20.625 0l-15 55.787 47.58 0.13281c25.031 0.0697 54.451-14.234 63.166-46.76 3.9041-14.57 8.6813-28.389 11.686-39.602 5.7412-21.427-7.213-49.537-35.305-49.537h-63.127l16-64.234zm6 8h56l-17 64h71.119c20.389 0 35.829 18.715 29.355 42.26-3.8471 13.993-6.7174 24.069-10.488 37.111-6.448 22.301-30.674 40.629-51.727 40.629h-40.26l9.9336-39.441c4.4242 0 9.8333 0.0577 14.824 0 7.0265-0.0813 12.38-3.4291 14.42-9.3945 1.9228-5.6228 4.241-15.773 5.2949-22.025 0.80805-4.7936-3.2116-9.1387-8.0703-9.1387h-100.4zm-10 120c-19.835 0-36 16.165-36 36s16.165 36 36 36 36-16.165 36-36-16.165-36-36-36zm0 8c15.511 0 28 12.489 28 28s-12.489 28-28 28-28-12.489-28-28 12.489-28 28-28z" fill="#20201e" filter="url(#shadow-blur)" opacity=".5"/>
  <g>
    <path id="fill" d="m129.01 37.518c-0.93463-0.043654-2.1205 0.29309-2.9238 0.080078-11.651 7.35e-4 -23.302-0.004094-34.953 0.003906-5.6887 0.020021-11.378-0.005899-17.066 0.0625-1.1022 1.0454-0.9253 3.0564-1.5234 4.4785-8.6123 33.199-17.245 66.393-25.867 99.59 0.61314 1.3631 2.9132 0.2868 4.1934 0.63477 32.926 0.0851 65.853 0.17099 98.779 0.25586 3.4985 1.2421 6.269 4.9705 5.2969 8.7656-1.2143 7.316-2.8688 14.814-5.2715 21.842-1.8181 5.5227-7.6152 8.9392-13.285 8.8535-5.1146 0.30436-10.315-0.085-15.41 0.53907-1.2037 0.70451-0.79007 2.6004-1.3809 3.7285-2.9357 11.687-5.9221 23.374-8.8047 35.066 0.62018 1.2377 2.5066 0.52417 3.6211 0.78906 13.97 8e-3 27.946 0.08407 41.912-0.24219 5.9827-0.5476 11.675-2.8936 17-5.5684 12.985-6.8829 23.918-18.238 29.059-32.123 4.3766-14.42 8.5323-28.915 12.279-43.512 0.75689-4.8044 0.79766-9.7944-0.11328-14.58-2.0957-9.8461-9.0943-18.633-18.578-22.244-4.1811-1.9939-8.8616-2.0584-13.396-2.1055-22.987-0.23691-46.015 0.05472-68.979-0.26172 5.3864-21.156 11.21-42.222 16.688-63.363-0.24351-0.50113-0.71461-0.66326-1.2754-0.68945zm-65.014 124.48c-17.673 0-32 14.327-32 32s14.327 32 32 32 32-14.327 32-32-14.327-32-32-32z" fill="url(#fill-gradient-vertical)"/>
    <path id="gloss" d="m129.01 37.518c-0.93463-0.043654-2.1205 0.29309-2.9238 0.080078-11.651 7.35e-4 -23.302-0.004094-34.953 0.003906-5.6887 0.020021-11.378-0.005899-17.066 0.0625-1.1022 1.0454-0.9253 3.0564-1.5234 4.4785-6.9108 26.64-13.835 53.277-20.756 79.914a192.98 131.46 0 0 0 81.686 12.359 192.98 131.46 0 0 0 80.074-11.852c-2.8705-8.3348-9.2701-15.465-17.574-18.627-4.1811-1.9939-8.8616-2.0584-13.396-2.1055-22.987-0.23691-46.015 0.05472-68.979-0.26172 5.3864-21.156 11.21-42.222 16.688-63.363-0.24351-0.50113-0.71461-0.66326-1.2754-0.68945z" fill="#fae69c"/>
    <path id="stroke" d="m68 30-32 120c14.045 0 95.139 0.0129 107.19 0 2.7965-3e-3 4.0164 1.5864 3.4922 4.1016-0.95955 4.6042-2.5428 11.193-4.3144 15.859-1.0542 2.7766-3.5351 4.1717-6.7383 4.252-6.3704 0.011-15.048 0-20.625 0l-15 55.787 47.58 0.13281c25.031 0.0697 54.451-14.234 63.166-46.76 3.9041-14.57 8.6813-28.389 11.686-39.602 5.7412-21.427-7.213-49.537-35.305-49.537h-63.127l16-64.234h-72zm6 8h56l-17 64h71.119c20.389 0 35.829 18.715 29.355 42.26-3.8471 13.993-6.7174 24.069-10.488 37.111-6.448 22.301-30.674 40.629-51.727 40.629h-40.26l9.9336-39.441c4.4242 0 9.8333 0.0577 14.824 0 7.0265-0.0813 12.38-3.4291 14.42-9.3945 1.9228-5.6228 4.241-15.773 5.2949-22.025 0.80805-4.7936-3.2116-9.1387-8.0703-9.1387h-100.4l27-104zm-10 120c-19.835 0-36 16.165-36 36s16.165 36 36 36 36-16.165 36-36-16.165-36-36-36zm0 8c15.511 0 28 12.489 28 28s-12.489 28-28 28-28-12.489-28-28 12.489-28 28-28z" fill="#101010"/>
  </g>
</svg>
